<svg version="1.2" xmlns="http://www.w3.org/2000/svg" viewBox="0 0 253 140" width="253" height="140">
	<title>MM_EastGold8-03 (1)-ai</title>
	<defs>
		<linearGradient id="g1" x2="1" gradientUnits="userSpaceOnUse" gradientTransform="matrix(115.227,73.491,-48.998,76.824,123.889,176.727)">
			<stop offset=".085" stop-color="#efcd5a"/>
			<stop offset=".827" stop-color="#bea666"/>
		</linearGradient>
		<linearGradient id="g2" x2="1" gradientUnits="userSpaceOnUse" gradientTransform="matrix(0,118.904,-679.779,0,547.713,426.273)">
			<stop offset=".085" stop-color="#efcd5a"/>
			<stop offset=".827" stop-color="#bea666"/>
		</linearGradient>
		<linearGradient id="g3" x2="1" gradientUnits="userSpaceOnUse" gradientTransform="matrix(0,118.904,-679.777,0,547.817,426.273)">
			<stop offset=".085" stop-color="#efcd5a"/>
			<stop offset=".827" stop-color="#bea666"/>
		</linearGradient>
		<linearGradient id="g4" x2="1" gradientUnits="userSpaceOnUse" gradientTransform="matrix(0,118.904,-353.631,0,589.02,426.273)">
			<stop offset=".085" stop-color="#efcd5a"/>
			<stop offset=".827" stop-color="#bea666"/>
		</linearGradient>
		<linearGradient id="g5" x2="1" gradientUnits="userSpaceOnUse" gradientTransform="matrix(0,118.904,-549.275,0,573.99,426.273)">
			<stop offset=".085" stop-color="#efcd5a"/>
			<stop offset=".827" stop-color="#bea666"/>
		</linearGradient>
		<linearGradient id="g6" x2="1" gradientUnits="userSpaceOnUse" gradientTransform="matrix(0,118.904,-679.768,0,423.207,426.273)">
			<stop offset=".085" stop-color="#efcd5a"/>
			<stop offset=".827" stop-color="#bea666"/>
		</linearGradient>
		<linearGradient id="g7" x2="1" gradientUnits="userSpaceOnUse" gradientTransform="matrix(0,118.904,-679.773,0,423.207,426.273)">
			<stop offset=".085" stop-color="#efcd5a"/>
			<stop offset=".827" stop-color="#bea666"/>
		</linearGradient>
		<linearGradient id="g8" x2="1" gradientUnits="userSpaceOnUse" gradientTransform="matrix(0,118.904,-353.624,0,387.436,426.273)">
			<stop offset=".085" stop-color="#efcd5a"/>
			<stop offset=".827" stop-color="#bea666"/>
		</linearGradient>
		<linearGradient id="g9" x2="1" gradientUnits="userSpaceOnUse" gradientTransform="matrix(0,118.904,-353.626,0,387.436,426.273)">
			<stop offset=".085" stop-color="#efcd5a"/>
			<stop offset=".827" stop-color="#bea666"/>
		</linearGradient>
		<linearGradient id="g10" x2="1" gradientUnits="userSpaceOnUse" gradientTransform="matrix(0,118.904,-353.634,0,373.733,426.273)">
			<stop offset=".085" stop-color="#efcd5a"/>
			<stop offset=".827" stop-color="#bea666"/>
		</linearGradient>
		<linearGradient id="g11" x2="1" gradientUnits="userSpaceOnUse" gradientTransform="matrix(0,118.904,-353.626,0,512.034,426.273)">
			<stop offset=".085" stop-color="#efcd5a"/>
			<stop offset=".827" stop-color="#bea666"/>
		</linearGradient>
		<linearGradient id="g12" x2="1" gradientUnits="userSpaceOnUse" gradientTransform="matrix(0,118.904,-353.628,0,512.034,426.273)">
			<stop offset=".085" stop-color="#efcd5a"/>
			<stop offset=".827" stop-color="#bea666"/>
		</linearGradient>
		<linearGradient id="g13" x2="1" gradientUnits="userSpaceOnUse" gradientTransform="matrix(0,118.904,-353.635,0,498.331,426.273)">
			<stop offset=".085" stop-color="#efcd5a"/>
			<stop offset=".827" stop-color="#bea666"/>
		</linearGradient>
		<linearGradient id="g14" x2="1" gradientUnits="userSpaceOnUse" gradientTransform="matrix(0,118.904,-353.624,0,436.157,426.273)">
			<stop offset=".085" stop-color="#efcd5a"/>
			<stop offset=".827" stop-color="#bea666"/>
		</linearGradient>
		<linearGradient id="g15" x2="1" gradientUnits="userSpaceOnUse" gradientTransform="matrix(42.664,89.266,-91.591,43.775,161.521,62.51)">
			<stop offset=".085" stop-color="#efcd5a"/>
			<stop offset=".827" stop-color="#bea666"/>
		</linearGradient>
		<linearGradient id="g16" x2="1" gradientUnits="userSpaceOnUse" gradientTransform="matrix(45.327,94.839,-93.429,44.654,174.483,50.25)">
			<stop offset=".085" stop-color="#efcd5a"/>
			<stop offset=".827" stop-color="#bea666"/>
		</linearGradient>
		<linearGradient id="g17" x2="1" gradientUnits="userSpaceOnUse" gradientTransform="matrix(0,11.774,-4.393,0,269.355,61.16)">
			<stop offset=".085" stop-color="#efcd5a"/>
			<stop offset=".827" stop-color="#bea666"/>
		</linearGradient>
		<linearGradient id="g18" x2="1" gradientUnits="userSpaceOnUse" gradientTransform="matrix(42.699,89.339,-81.592,38.996,238.031,13.861)">
			<stop offset=".085" stop-color="#efcd5a"/>
			<stop offset=".827" stop-color="#bea666"/>
		</linearGradient>
		<linearGradient id="g19" x2="1" gradientUnits="userSpaceOnUse" gradientTransform="matrix(13.399,112.343,-400.729,47.793,156.879,4.219)">
			<stop offset=".085" stop-color="#efcd5a"/>
			<stop offset=".827" stop-color="#bea666"/>
		</linearGradient>
		<linearGradient id="g20" x2="1" gradientUnits="userSpaceOnUse" gradientTransform="matrix(13.399,112.342,-400.719,47.792,163.32,5.989)">
			<stop offset=".085" stop-color="#efcd5a"/>
			<stop offset=".827" stop-color="#bea666"/>
		</linearGradient>
		<linearGradient id="g21" x2="1" gradientUnits="userSpaceOnUse" gradientTransform="matrix(13.559,113.69,-265.117,31.619,180.532,1.294)">
			<stop offset=".085" stop-color="#efcd5a"/>
			<stop offset=".827" stop-color="#bea666"/>
		</linearGradient>
		<linearGradient id="g22" x2="1" gradientUnits="userSpaceOnUse" gradientTransform="matrix(13.454,112.81,-354.075,42.229,174.131,3.196)">
			<stop offset=".085" stop-color="#efcd5a"/>
			<stop offset=".827" stop-color="#bea666"/>
		</linearGradient>
		<linearGradient id="g23" x2="1" gradientUnits="userSpaceOnUse" gradientTransform="matrix(13.399,112.342,-400.713,47.791,90.179,12.57)">
			<stop offset=".085" stop-color="#efcd5a"/>
			<stop offset=".827" stop-color="#bea666"/>
		</linearGradient>
		<linearGradient id="g24" x2="1" gradientUnits="userSpaceOnUse" gradientTransform="matrix(13.399,112.342,-400.715,47.792,96.565,14.347)">
			<stop offset=".085" stop-color="#efcd5a"/>
			<stop offset=".827" stop-color="#bea666"/>
		</linearGradient>
		<linearGradient id="g25" x2="1" gradientUnits="userSpaceOnUse" gradientTransform="matrix(13.559,113.689,-265.108,31.618,75.792,16.186)">
			<stop offset=".085" stop-color="#efcd5a"/>
			<stop offset=".827" stop-color="#bea666"/>
		</linearGradient>
		<linearGradient id="g26" x2="1" gradientUnits="userSpaceOnUse" gradientTransform="matrix(13.559,113.689,-265.109,31.619,72.561,14.977)">
			<stop offset=".085" stop-color="#efcd5a"/>
			<stop offset=".827" stop-color="#bea666"/>
		</linearGradient>
		<linearGradient id="g27" x2="1" gradientUnits="userSpaceOnUse" gradientTransform="matrix(13.56,113.692,-265.129,31.621,66.837,16.511)">
			<stop offset=".085" stop-color="#efcd5a"/>
			<stop offset=".827" stop-color="#bea666"/>
		</linearGradient>
		<linearGradient id="g28" x2="1" gradientUnits="userSpaceOnUse" gradientTransform="matrix(13.559,113.689,-265.109,31.618,142.528,7.729)">
			<stop offset=".085" stop-color="#efcd5a"/>
			<stop offset=".827" stop-color="#bea666"/>
		</linearGradient>
		<linearGradient id="g29" x2="1" gradientUnits="userSpaceOnUse" gradientTransform="matrix(13.559,113.689,-265.11,31.619,139.297,6.519)">
			<stop offset=".085" stop-color="#efcd5a"/>
			<stop offset=".827" stop-color="#bea666"/>
		</linearGradient>
		<linearGradient id="g30" x2="1" gradientUnits="userSpaceOnUse" gradientTransform="matrix(13.56,113.692,-265.129,31.621,133.573,8.054)">
			<stop offset=".085" stop-color="#efcd5a"/>
			<stop offset=".827" stop-color="#bea666"/>
		</linearGradient>
		<linearGradient id="g31" x2="1" gradientUnits="userSpaceOnUse" gradientTransform="matrix(13.559,113.689,-265.105,31.618,100.272,12.275)">
			<stop offset=".085" stop-color="#efcd5a"/>
			<stop offset=".827" stop-color="#bea666"/>
		</linearGradient>
		<linearGradient id="g32" x2="1" gradientUnits="userSpaceOnUse" gradientTransform="matrix(46.1,96.456,-98.969,47.301,-157.766,452.837)">
			<stop offset=".085" stop-color="#efcd5a"/>
			<stop offset=".827" stop-color="#bea666"/>
		</linearGradient>
		<linearGradient id="g33" x2="1" gradientUnits="userSpaceOnUse" gradientTransform="matrix(48.979,102.479,-100.955,48.251,-143.76,439.59)">
			<stop offset=".085" stop-color="#efcd5a"/>
			<stop offset=".827" stop-color="#bea666"/>
		</linearGradient>
		<linearGradient id="g34" x2="1" gradientUnits="userSpaceOnUse" gradientTransform="matrix(0,12.722,-4.747,0,-41.246,451.379)">
			<stop offset=".085" stop-color="#efcd5a"/>
			<stop offset=".827" stop-color="#bea666"/>
		</linearGradient>
		<linearGradient id="g35" x2="1" gradientUnits="userSpaceOnUse" gradientTransform="matrix(46.138,96.535,-88.164,42.137,-75.094,400.27)">
			<stop offset=".085" stop-color="#efcd5a"/>
			<stop offset=".827" stop-color="#bea666"/>
		</linearGradient>
		<linearGradient id="g36" x2="1" gradientUnits="userSpaceOnUse" gradientTransform="matrix(14.478,121.393,-433.009,51.643,-162.783,389.851)">
			<stop offset=".085" stop-color="#efcd5a"/>
			<stop offset=".827" stop-color="#bea666"/>
		</linearGradient>
		<linearGradient id="g37" x2="1" gradientUnits="userSpaceOnUse" gradientTransform="matrix(14.478,121.392,-432.998,51.642,-155.823,391.764)">
			<stop offset=".085" stop-color="#efcd5a"/>
			<stop offset=".827" stop-color="#bea666"/>
		</linearGradient>
		<linearGradient id="g38" x2="1" gradientUnits="userSpaceOnUse" gradientTransform="matrix(14.652,122.848,-286.473,34.166,-137.224,386.69)">
			<stop offset=".085" stop-color="#efcd5a"/>
			<stop offset=".827" stop-color="#bea666"/>
		</linearGradient>
		<linearGradient id="g39" x2="1" gradientUnits="userSpaceOnUse" gradientTransform="matrix(14.538,121.898,-382.598,45.631,-144.141,388.746)">
			<stop offset=".085" stop-color="#efcd5a"/>
			<stop offset=".827" stop-color="#bea666"/>
		</linearGradient>
		<linearGradient id="g40" x2="1" gradientUnits="userSpaceOnUse" gradientTransform="matrix(14.478,121.391,-432.992,51.641,-234.855,398.875)">
			<stop offset=".085" stop-color="#efcd5a"/>
			<stop offset=".827" stop-color="#bea666"/>
		</linearGradient>
		<linearGradient id="g41" x2="1" gradientUnits="userSpaceOnUse" gradientTransform="matrix(14.478,121.391,-432.994,51.642,-227.955,400.795)">
			<stop offset=".085" stop-color="#efcd5a"/>
			<stop offset=".827" stop-color="#bea666"/>
		</linearGradient>
		<linearGradient id="g42" x2="1" gradientUnits="userSpaceOnUse" gradientTransform="matrix(14.652,122.848,-286.463,34.165,-250.402,402.782)">
			<stop offset=".085" stop-color="#efcd5a"/>
			<stop offset=".827" stop-color="#bea666"/>
		</linearGradient>
		<linearGradient id="g43" x2="1" gradientUnits="userSpaceOnUse" gradientTransform="matrix(14.652,122.848,-286.465,34.166,-253.893,401.475)">
			<stop offset=".085" stop-color="#efcd5a"/>
			<stop offset=".827" stop-color="#bea666"/>
		</linearGradient>
		<linearGradient id="g44" x2="1" gradientUnits="userSpaceOnUse" gradientTransform="matrix(14.652,122.85,-286.486,34.168,-260.078,403.133)">
			<stop offset=".085" stop-color="#efcd5a"/>
			<stop offset=".827" stop-color="#bea666"/>
		</linearGradient>
		<linearGradient id="g45" x2="1" gradientUnits="userSpaceOnUse" gradientTransform="matrix(14.652,122.848,-286.465,34.166,-178.289,393.644)">
			<stop offset=".085" stop-color="#efcd5a"/>
			<stop offset=".827" stop-color="#bea666"/>
		</linearGradient>
		<linearGradient id="g46" x2="1" gradientUnits="userSpaceOnUse" gradientTransform="matrix(14.652,122.848,-286.466,34.166,-181.781,392.337)">
			<stop offset=".085" stop-color="#efcd5a"/>
			<stop offset=".827" stop-color="#bea666"/>
		</linearGradient>
		<linearGradient id="g47" x2="1" gradientUnits="userSpaceOnUse" gradientTransform="matrix(14.652,122.85,-286.487,34.168,-187.966,393.994)">
			<stop offset=".085" stop-color="#efcd5a"/>
			<stop offset=".827" stop-color="#bea666"/>
		</linearGradient>
		<linearGradient id="g48" x2="1" gradientUnits="userSpaceOnUse" gradientTransform="matrix(14.651,122.847,-286.46,34.165,-223.95,398.555)">
			<stop offset=".085" stop-color="#efcd5a"/>
			<stop offset=".827" stop-color="#bea666"/>
		</linearGradient>
	</defs>
	<style>
		.s0 { fill: #24252a } 
		.s1 { fill: none;stroke: #fefefe;stroke-miterlimit:10;stroke-width: 1.2 } 
		.s2 { fill: url(#g1) } 
		.s3 { fill: url(#g2) } 
		.s4 { fill: url(#g3) } 
		.s5 { fill: url(#g4) } 
		.s6 { fill: url(#g5) } 
		.s7 { fill: url(#g6) } 
		.s8 { fill: url(#g7) } 
		.s9 { fill: url(#g8) } 
		.s10 { fill: url(#g9) } 
		.s11 { fill: url(#g10) } 
		.s12 { fill: url(#g11) } 
		.s13 { fill: url(#g12) } 
		.s14 { fill: url(#g13) } 
		.s15 { fill: url(#g14) } 
		.s16 { fill: url(#g15) } 
		.s17 { fill: url(#g16) } 
		.s18 { fill: url(#g17) } 
		.s19 { fill: url(#g18) } 
		.s20 { fill: url(#g19) } 
		.s21 { fill: url(#g20) } 
		.s22 { fill: url(#g21) } 
		.s23 { fill: url(#g22) } 
		.s24 { fill: url(#g23) } 
		.s25 { fill: url(#g24) } 
		.s26 { fill: url(#g25) } 
		.s27 { fill: url(#g26) } 
		.s28 { fill: url(#g27) } 
		.s29 { fill: url(#g28) } 
		.s30 { fill: url(#g29) } 
		.s31 { fill: url(#g30) } 
		.s32 { fill: url(#g31) } 
		.s33 { fill: #fefefe } 
		.s34 { fill: url(#g32) } 
		.s35 { fill: url(#g33) } 
		.s36 { fill: url(#g34) } 
		.s37 { fill: url(#g35) } 
		.s38 { fill: url(#g36) } 
		.s39 { fill: url(#g37) } 
		.s40 { fill: url(#g38) } 
		.s41 { fill: url(#g39) } 
		.s42 { fill: url(#g40) } 
		.s43 { fill: url(#g41) } 
		.s44 { fill: url(#g42) } 
		.s45 { fill: url(#g43) } 
		.s46 { fill: url(#g44) } 
		.s47 { fill: url(#g45) } 
		.s48 { fill: url(#g46) } 
		.s49 { fill: url(#g47) } 
		.s50 { fill: url(#g48) } 
		.s51 { fill: none;stroke: #e6e7e8;stroke-miterlimit:10;stroke-width: .6 } 
		.s52 { fill: none;stroke: #e6e7e8;stroke-miterlimit:10;stroke-width: .9 } 
	</style>
	<g id="Layer 1">
		<g id="&lt;Group&gt;">
			<path id="&lt;Path&gt;" class="s0" d="m807.2 660h-1362.4v-402.7h1362.4z"/>
		</g>
		<g id="&lt;Group&gt;">
			<path id="&lt;Path&gt;" class="s1" d="m160 588.6v-224.8"/>
			<g id="&lt;Group&gt;">
				<path id="&lt;Path&gt;" class="s0" d="m125.1 237.2h-162.2v-8.2h162.2z"/>
				<path id="&lt;Path&gt;" class="s2" d="m286.8 237.2h-162.3v-8.2h162.3z"/>
			</g>
			<g id="&lt;Group&gt;">
				<path id="&lt;Path&gt;" class="s3" d="m587 516.2c-0.4-0.5-1-0.9-1.7-0.9h-78.2c-0.7 0-1.3 0.4-1.7 0.9l-7.6 13.2c-0.3 0.6-0.3 1.4 0 2 0.3 0.6 1 0.9 1.7 0.9h93.5c0.7 0 1.3-0.3 1.6-0.9 0.4-0.6 0.4-1.4 0-2z"/>
				<path id="&lt;Path&gt;" class="s4" d="m499.6 437.1h93.5c0.7 0 1.3-0.3 1.6-0.9 0.4-0.6 0.4-1.4 0-2l-7.6-13.2c-0.4-0.6-1-0.9-1.7-0.9h-78.2c-0.7 0-1.3 0.3-1.7 0.9l-7.6 13.2c-0.3 0.6-0.3 1.4 0 2 0.4 0.6 1 0.9 1.7 0.9z"/>
				<path id="&lt;Path&gt;" class="s5" d="m603.6 492.4c-0.4-0.6-1-0.9-1.7-0.9h-31.5c-0.7 0-1.3 0.4-1.7 0.9l-7.6 13.2c-0.4 0.6-0.4 1.4 0 2 0.3 0.6 1 0.9 1.6 0.9h46.9c0.7 0 1.3-0.3 1.6-0.9 0.4-0.6 0.4-1.4 0-2z"/>
				<path id="&lt;Path&gt;" class="s6" d="m540.7 468.6l-7.6 13.2c-0.4 0.6-0.4 1.4 0 2 0.3 0.6 0.9 0.9 1.6 0.9h74.9c0.7 0 1.3-0.3 1.6-0.9 0.4-0.6 0.4-1.4 0-2l-7.6-13.2c-0.4-0.6-1-0.9-1.7-0.9h-59.5c-0.7 0-1.4 0.3-1.7 0.9z"/>
				<path id="&lt;Path&gt;" class="s7" d="m462.5 516.2c-0.4-0.5-1-0.9-1.7-0.9h-78.2c-0.7 0-1.3 0.4-1.7 0.9l-7.6 13.2c-0.3 0.6-0.3 1.4 0 2 0.3 0.6 1 0.9 1.7 0.9h93.5c0.7 0 1.3-0.3 1.6-0.9 0.4-0.6 0.4-1.4 0-2z"/>
				<path id="&lt;Path&gt;" class="s8" d="m375 437.1h93.5c0.7 0 1.3-0.3 1.6-0.9 0.4-0.6 0.4-1.4 0-2l-7.6-13.2c-0.4-0.6-1-0.9-1.7-0.9h-78.2c-0.7 0-1.3 0.3-1.7 0.9l-7.6 13.2c-0.3 0.6-0.3 1.4 0 2 0.3 0.6 1 0.9 1.7 0.9z"/>
				<path id="&lt;Path&gt;" class="s9" d="m361.2 460.9h46.8c0.7 0 1.3-0.3 1.6-0.9 0.4-0.6 0.4-1.4 0-2l-7.6-13.2c-0.4-0.6-1-0.9-1.7-0.9h-31.5c-0.7 0-1.3 0.3-1.7 0.9l-7.6 13.2c-0.3 0.6-0.3 1.4 0 2 0.4 0.6 1 0.9 1.7 0.9z"/>
				<path id="&lt;Path&gt;" class="s10" d="m409.6 507.6c0.4-0.6 0.4-1.4 0-2l-7.6-13.2c-0.4-0.5-1-0.9-1.7-0.9h-31.5c-0.7 0-1.3 0.4-1.7 0.9l-7.6 13.2c-0.3 0.6-0.3 1.4 0 2 0.4 0.6 1 0.9 1.7 0.9h46.8c0.7 0 1.3-0.3 1.6-0.9z"/>
				<path id="&lt;Path&gt;" class="s11" d="m395.9 483.8c0.4-0.6 0.4-1.4 0-2l-7.6-13.2c-0.4-0.6-1-0.9-1.7-0.9h-31.5c-0.7 0-1.3 0.4-1.7 0.9l-7.6 13.2c-0.3 0.6-0.3 1.4 0 2 0.4 0.6 1 0.9 1.7 0.9h46.8c0.7 0 1.3-0.3 1.6-0.9z"/>
				<path id="&lt;Path&gt;" class="s12" d="m485.8 460.9h46.8c0.7 0 1.3-0.3 1.6-0.9 0.4-0.6 0.4-1.4 0-2l-7.6-13.2c-0.4-0.6-1-0.9-1.7-0.9h-31.5c-0.7 0-1.3 0.3-1.7 0.9l-7.6 13.2c-0.3 0.6-0.3 1.4 0 2 0.4 0.6 1 0.9 1.7 0.9z"/>
				<path id="&lt;Path&gt;" class="s13" d="m534.2 507.6c0.4-0.6 0.4-1.4 0-2l-7.6-13.2c-0.4-0.5-1-0.9-1.7-0.9h-31.5c-0.7 0-1.3 0.4-1.7 0.9l-7.6 13.2c-0.3 0.6-0.3 1.4 0 2 0.4 0.6 1 0.9 1.7 0.9h46.8c0.7 0 1.3-0.3 1.6-0.9z"/>
				<path id="&lt;Path&gt;" class="s14" d="m520.5 483.8c0.4-0.6 0.4-1.4 0-2l-7.6-13.2c-0.4-0.6-1-0.9-1.7-0.9h-31.5c-0.7 0-1.3 0.4-1.7 0.9l-7.6 13.2c-0.3 0.6-0.3 1.4 0 2 0.3 0.6 1 0.9 1.7 0.9h46.8c0.7 0 1.3-0.3 1.6-0.9z"/>
				<path id="&lt;Path&gt;" class="s15" d="m449 467.7h-31.5c-0.7 0-1.3 0.3-1.6 0.9l-7.7 13.2c-0.3 0.6-0.3 1.4 0 2 0.4 0.6 1 0.9 1.7 0.9h46.8c0.7 0 1.3-0.3 1.7-0.9 0.3-0.6 0.3-1.4 0-2l-7.7-13.2c-0.3-0.6-1-0.9-1.7-0.9z"/>
			</g>
			<g id="&lt;Group&gt;">
				<g id="&lt;Group&gt;">
					<g id="&lt;Group&gt;">
						<g id="&lt;Group&gt;">
							<path id="&lt;Compound Path&gt;" class="s0" d="m18 124.4q-4.7 0-8.4-2-3.7-1.9-5.8-5.7-2.1-3.9-2.1-9.4 0-4.8 2.1-8.8 2-4 5.7-6.4 3.7-2.4 8.7-2.4 4.5 0 7.6 1.9 3.1 1.8 4.7 4.8 1.7 3 1.7 6.3 0 0.4-0.1 1.1 0 0.7 0 1.3-0.1 0.7-0.2 1.1h-22.4l0.2-3.2h14.2q0-2.9-0.6-5.1-0.6-2.2-1.9-3.5-1.3-1.4-3.7-1.4-2.3 0-3.8 1.2-1.5 1.1-2.3 3-0.9 1.9-1.3 4.1-0.3 2.3-0.3 4.4 0 3.8 1 6.9 1 3.1 3.5 4.9 2.4 1.8 6.6 1.8 2.5 0 4.3-0.6 1.9-0.5 3.4-1.3 1.4-0.8 2.4-1.5h0.9v3q-2.3 1.9-6 3.7-3.7 1.8-8.1 1.8z"/>
							<path id="&lt;Compound Path&gt;" fill-rule="evenodd" class="s0" d="m43.8 124.3q-2.8 0-4.8-1.3-2.1-1.3-3.2-3.3-1.1-2.1-1.1-4.5 0-3.2 1.5-5.3 1.6-2.2 4-3.5 2.4-1.4 5.1-2 2.6-0.6 4.9-0.6 0.5 0 1.4 0.1 0.9 0 1.9 0.1 0.9 0.1 1.3 0.1v-4.6q0.1-3.4-1.1-4.6-1.1-1.2-3.7-1.2-1.4 0-3 0.6-1.5 0.6-3 1.5-1.4 0.9-2.7 1.8-1.3 0.9-2.2 1.5h-1.3l-0.9-6.5q1.7-0.7 3.6-1.4 2-0.6 4.3-1.1 2.3-0.4 5-0.4 3.1 0 6.1 0.9 3 1 5 3.3 2 2.3 1.9 6.5l-0.1 17q0 1 0.7 1.7 0.8 0.6 2 0.6 0.4 0 1.3-0.2 0.9-0.2 1.6-0.4h0.7v2.4q-0.7 0.5-2 1.2-1.3 0.6-2.8 1.1-1.4 0.5-2.8 0.5-3 0-4.7-1.2-1.7-1.3-1.7-4.4h-0.2q-1.7 2.5-3.6 3.7-2 1.2-3.9 1.5-1.9 0.4-3.5 0.4zm4.4-4.8q1.7 0 3.5-0.7 1.9-0.7 3-2.4l0.1-9.6q-3.6 0-6.2 0.7-2.6 0.6-4.1 2.2-1.5 1.5-1.5 4.1 0 2.2 0.8 3.4 0.8 1.2 2 1.8 1.2 0.5 2.4 0.5z"/>
							<path id="&lt;Compound Path&gt;" class="s0" d="m69.6 122.3v-9.1h3.2l1.1 3.5q0.3 0.7 0.9 1.3 0.6 0.5 1.2 0.8 1.2 0.7 3.2 1.3 2 0.7 4 0.7 1.5 0 2.8-0.5 1.4-0.4 2.2-1.6 0.8-1.1 0.8-2.9 0-2.3-1.7-3.3-1.7-0.9-4.1-1.6-1.6-0.5-3.1-0.9-1.6-0.4-2.9-0.8-3.4-1.1-5.2-3.4-1.9-2.4-1.9-5.8 0-3 1.9-5.4 1.9-2.3 5.1-3.6 3.2-1.3 7-1.3 3.1 0 5.3 0.3 2.3 0.4 4.9 1l0.4 9.3h-3.2l-1.3-3.6q-0.3-0.6-0.8-1.1-0.5-0.5-1.1-0.8-1.1-0.6-2.6-1.1-1.6-0.4-3.2-0.4-1.8 0-3.4 1.1-1.7 1-1.7 3.3 0 2.4 1.5 3.5 1.5 1.1 3.7 1.7 1.5 0.5 2.9 0.9 1.5 0.4 2.6 0.8 3.7 1.1 6 3.1 2.2 2.1 2.2 5.7 0 3.8-2.1 6.3-2.1 2.4-5.4 3.6-3.4 1.2-7.2 1.2-3.9 0-6.7-0.7-2.9-0.8-5.3-1.5z"/>
							<path id="&lt;Compound Path&gt;" class="s0" d="m122.1 90.8l-0.8 3.7h-10.8v21q0 1.4 1 2.3 1.1 0.9 2.6 1.4 1.4 0.4 2.5 0.4 1 0 2.4-0.2 1.3-0.3 1.9-0.5h0.9v2.3q-0.7 0.4-2.1 1.2-1.5 0.7-3.5 1.3-1.9 0.5-4.1 0.5-2.8 0-4.9-0.8-2.1-0.8-3.4-2.3-1.3-1.5-1.3-3.6v-23h-5.4v-2.6q1.8-0.4 3.1-0.9 1.3-0.4 2.1-1.4 0.7-1 0.8-3l0.3-4.3 7.1-1.2v9.7z"/>
							<path id="&lt;Compound Path&gt;" fill-rule="evenodd" class="s16" d="m138 112.2q-1.6 0-3-0.2-1.4-0.2-2.3-0.5-0.8 0.3-1.5 1.1-0.6 0.8-0.6 1.9 0 1.5 0.8 2.2 0.9 0.7 2.1 0.8h10.7q4.5 0 7.1 1.4 2.6 1.4 3.6 3.5 1.1 2.2 1.1 4.2 0 3.8-2.5 6.7-2.4 2.8-6.6 4.4-4.2 1.6-9.4 1.6-4.4 0-7.9-0.9-3.5-1-5.5-2.9-2-1.9-2-4.6 0-3.2 2.1-4.9 2.1-1.7 5.7-2.6v-0.1q-1.3-0.3-2.6-1.1-1.4-0.8-2.4-2.1-1-1.3-1-3.1 0-1.9 1-3.2 1.1-1.3 2.6-2 1.6-0.8 3.1-1.2v-0.1q-1.6-0.9-3-2.1-1.4-1.3-2.3-3.1-0.9-1.8-0.9-4.4 0-3 1.7-5.6 1.8-2.6 5-4.1 3.3-1.5 7.5-1.5 1.8 0 3.6 0.3 1.8 0.2 3.5 0.6h11.9l-0.5 4.5-8.6-1.4v0.1q1.9 1.6 2.6 3.5 0.8 2 0.8 3.8 0 4.8-3.6 7.9-3.6 3.2-10.3 3.2zm1.1 23.7q2.3 0 4.6-0.8 2.3-0.7 3.7-2.2 1.5-1.6 1.5-4.1 0-1.8-1.4-3.3-1.4-1.5-4.5-1.5h-10.6q-0.8 0.5-1.6 1.7-0.8 1.3-0.8 3.5 0 2 1 3.3 0.9 1.2 2.3 2 1.4 0.7 3 1 1.6 0.4 2.8 0.4zm-0.8-26.5q1.9 0 3.1-1.2 1.2-1.1 1.8-3 0.5-1.9 0.5-4.5 0-3.7-1.4-5.9-1.4-2.2-4.1-2.2-1.8 0-3 1.1-1.2 1-1.9 2.8-0.6 1.8-0.6 4.3 0 3.9 1.4 6.2 1.5 2.4 4.2 2.4z"/>
							<path id="&lt;Compound Path&gt;" fill-rule="evenodd" class="s17" d="m175.1 124.5q-5.1 0-8.8-2.1-3.7-2.1-5.8-6-2-3.9-2-9.2 0-5 2-8.9 2-4 5.8-6.3 3.9-2.3 9.1-2.3 5.7 0 9.4 2.4 3.7 2.5 5.4 6.4 1.8 3.9 1.8 8.5 0 4.9-2 8.9-2 4-5.8 6.3-3.8 2.3-9.1 2.3zm0.4-3.4q2.4 0 3.9-1.2 1.6-1.3 2.4-3.3 0.9-2 1.2-4.3 0.4-2.4 0.4-4.6 0-3.6-0.8-7-0.8-3.3-2.6-5.5-1.9-2.1-5-2.1-2.4 0-3.9 1.2-1.5 1.2-2.4 3.2-0.9 2-1.2 4.4-0.4 2.3-0.4 4.5 0 2.4 0.4 5 0.4 2.6 1.3 4.8 1 2.2 2.6 3.6 1.6 1.3 4.1 1.3z"/>
							<path id="&lt;Compound Path&gt;" class="s18" d="m193.5 123.6v-2l4-1.2q0.6-0.3 1-0.7 0.4-0.4 0.4-1.1v-37.6q0-0.7-0.5-1.3-0.4-0.5-1.3-0.8l-3.8-1.4v-1.8l13.6-1.9v44.8q0 0.8 0.4 1.2 0.3 0.3 0.9 0.6l3.7 1.2v2z"/>
							<path id="&lt;Compound Path&gt;" fill-rule="evenodd" class="s19" d="m226.6 124.3q-4.1 0-7-2.1-2.9-2.1-4.4-5.7-1.6-3.6-1.6-8.2 0-5.1 1.9-9.4 1.8-4.2 5.3-6.7 3.5-2.5 8.4-2.5 2.9 0 4.8 1 2 1 3.2 2.3v-1.6-10.4q0-0.7-0.4-1.2-0.4-0.6-1.4-0.9l-4-1.4v-1.8l13.7-1.9v43q0 0.8 0.4 1.3 0.5 0.5 1.4 0.9l3.4 1.1v1.8l-12.3 2.4h-0.5v-5.6h-0.2q-1.8 2.6-3.9 3.8-2.1 1.2-3.9 1.5-1.8 0.3-2.9 0.3zm4.1-5.1q0.9 0 2.2-0.2 1.2-0.3 2.4-0.9 1.1-0.7 1.9-1.8v-20.9q-0.8-0.5-1.9-0.9-1.2-0.4-2.4-0.5-1.2-0.2-2.1-0.2-2.9 0-4.9 1.7-2 1.6-3 4.4-0.9 2.7-0.9 6 0 3.9 0.9 6.9 0.9 3 2.8 4.7 2 1.7 5 1.7z"/>
						</g>
					</g>
					<g id="&lt;Group&gt;">
						<g id="&lt;Group&gt;">
							<g id="&lt;Group&gt;">
								<g id="&lt;Group&gt;">
									<path id="&lt;Compound Path&gt;" class="s0" d="m42.7 154.3q-0.3 0.6-0.9 1-0.6 0.4-1.5 0.5v0.7q0.8 0 1.3 0.4 0.5 0.3 0.5 1 0 0.6-0.5 1-0.4 0.3-1.2 0.3h-1.5v-0.7h1.3q0.4 0 0.7-0.2 0.2-0.1 0.2-0.4 0-0.3-0.2-0.5-0.3-0.1-0.7-0.1h-0.7v-1.5q-1.2-0.1-2-0.8-0.8-0.7-0.8-1.8h1.3q0.1 0.7 0.5 1.1 0.5 0.5 1.4 0.5 0.9 0 1.4-0.5 0.5-0.4 0.5-1.1 0-0.5-0.3-0.9-0.3-0.3-0.7-0.5-0.5-0.2-1.2-0.4-0.9-0.2-1.5-0.4-0.6-0.3-0.9-0.8-0.4-0.5-0.4-1.4 0-0.7 0.3-1.3 0.4-0.6 1.1-1 0.7-0.3 1.7-0.3 1.3 0 2.1 0.7 0.8 0.6 0.9 1.7h-1.3q-0.1-0.5-0.6-0.9-0.5-0.4-1.3-0.4-0.7 0-1.2 0.4-0.5 0.4-0.5 1.1 0 0.5 0.3 0.8 0.3 0.3 0.7 0.5 0.4 0.2 1.2 0.4 0.9 0.2 1.5 0.5 0.5 0.2 0.9 0.7 0.4 0.6 0.4 1.4 0 0.7-0.3 1.2z"/>
								</g>
							</g>
							<g id="&lt;Group&gt;">
								<g id="&lt;Group&gt;">
									<path id="&lt;Compound Path&gt;" fill-rule="evenodd" class="s0" d="m54.1 146.8q1 0.6 1.6 1.7 0.5 1.1 0.5 2.5 0 1.4-0.5 2.5-0.6 1.1-1.6 1.7-1 0.6-2.3 0.6-1.3 0-2.3-0.5-1-0.5-1.6-1.5-0.5-1-0.5-2.4 0-0.4 0-0.8h7.5q0-1-0.4-1.7-0.5-0.8-1.2-1.2-0.6-0.4-1.5-0.4-1.1 0-1.8 0.5-0.8 0.6-1.1 1.5h-1.4q0.4-1.4 1.6-2.2 1.1-0.9 2.7-0.9 1.3 0 2.3 0.6zm-0.8 7.5q0.7-0.3 1.1-1 0.5-0.7 0.5-1.6h-6.2q0 0.9 0.4 1.6 0.3 0.6 1.1 1 0.7 0.4 1.6 0.4 0.8 0 1.5-0.4z"/>
								</g>
							</g>
							<g id="&lt;Group&gt;">
								<g id="&lt;Group&gt;">
									<path id="&lt;Compound Path&gt;" fill-rule="evenodd" class="s0" d="m65.7 155.7l-2.3-3.8h-1.4v3.8h-1.3v-9.4h3q1.1 0 1.8 0.4 0.8 0.4 1.1 1 0.4 0.6 0.4 1.4 0 1-0.6 1.7-0.5 0.7-1.6 1l2.3 3.9zm-3.7-4.8h1.8q1 0 1.5-0.5 0.5-0.5 0.5-1.3 0-0.8-0.5-1.3-0.5-0.4-1.5-0.4h-1.8z"/>
								</g>
							</g>
							<g id="&lt;Group&gt;">
								<g id="&lt;Group&gt;">
									<path id="&lt;Compound Path&gt;" fill-rule="evenodd" class="s0" d="m79.1 157.5l-1.9-1.9q-0.7 0.2-1.4 0.2-1.3 0-2.4-0.6-1-0.6-1.7-1.7-0.6-1.1-0.6-2.5 0-1.4 0.6-2.4 0.7-1.1 1.7-1.7 1.1-0.7 2.4-0.7 1.3 0 2.4 0.7 1.1 0.6 1.7 1.6 0.6 1.1 0.6 2.5 0 1.4-0.6 2.4-0.6 1.1-1.6 1.7l2.3 2.4zm-6.2-4.5q0.4 0.8 1.2 1.3 0.8 0.4 1.8 0.4 1 0 1.7-0.4 0.8-0.5 1.3-1.3 0.4-0.9 0.4-2 0-1.1-0.4-2-0.5-0.8-1.3-1.2-0.7-0.5-1.7-0.5-1 0-1.8 0.5-0.8 0.4-1.2 1.2-0.5 0.9-0.5 2 0 1.1 0.5 2z"/>
								</g>
							</g>
							<g id="&lt;Group&gt;">
								<g id="&lt;Group&gt;">
									<path id="&lt;Compound Path&gt;" class="s0" d="m86 146.3v9.4h-1.2v-9.4z"/>
								</g>
							</g>
							<g id="&lt;Group&gt;">
								<g id="&lt;Group&gt;">
									<path id="&lt;Compound Path&gt;" class="s0" d="m98.1 155.7h-1.2l-4.9-7.4v7.4h-1.2v-9.4h1.2l4.9 7.5v-7.5h1.2z"/>
								</g>
							</g>
							<g id="&lt;Group&gt;">
								<g id="&lt;Group&gt;">
									<path id="&lt;Compound Path&gt;" fill-rule="evenodd" class="s0" d="m116.6 157.5l-1.8-1.9q-0.7 0.2-1.4 0.2-1.3 0-2.4-0.6-1.1-0.6-1.7-1.7-0.6-1.1-0.6-2.5 0-1.4 0.6-2.4 0.6-1.1 1.7-1.7 1.1-0.7 2.4-0.7 1.3 0 2.4 0.7 1 0.6 1.6 1.6 0.7 1.1 0.7 2.5 0 1.4-0.6 2.4-0.6 1.1-1.6 1.7l2.3 2.4zm-6.2-4.5q0.4 0.8 1.2 1.3 0.8 0.4 1.8 0.4 0.9 0 1.7-0.4 0.8-0.5 1.3-1.3 0.4-0.9 0.4-2 0-1.1-0.4-2-0.5-0.8-1.3-1.2-0.8-0.5-1.7-0.5-1 0-1.8 0.5-0.8 0.4-1.2 1.2-0.5 0.9-0.5 2 0 1.1 0.5 2z"/>
								</g>
							</g>
							<g id="&lt;Group&gt;">
								<g id="&lt;Group&gt;">
									<path id="&lt;Compound Path&gt;" class="s0" d="m123.6 146.3v9.4h-1.2v-9.4z"/>
								</g>
							</g>
							<g id="&lt;Group&gt;">
								<g id="&lt;Group&gt;">
									<path id="&lt;Compound Path&gt;" class="s0" d="m129.4 154.6h4.5v1.1h-6v-1l4.6-7.3h-4.5v-1.1h5.9v1z"/>
								</g>
							</g>
							<g id="&lt;Group&gt;">
								<g id="&lt;Group&gt;">
									<path id="&lt;Compound Path&gt;" class="s0" d="m139.5 146.3v9.4h-1.2v-9.4z"/>
								</g>
							</g>
							<g id="&lt;Group&gt;">
								<g id="&lt;Group&gt;">
									<path id="&lt;Compound Path&gt;" class="s0" d="m145.5 154.7h3.3v1h-4.5v-9.4h1.2z"/>
								</g>
							</g>
							<g id="&lt;Group&gt;">
								<g id="&lt;Group&gt;">
									<path id="&lt;Compound Path&gt;" fill-rule="evenodd" class="s0" d="m164.6 151.3q0.4 0.3 0.7 0.8 0.2 0.5 0.2 1.1 0 0.7-0.3 1.3-0.4 0.5-1.1 0.9-0.7 0.3-1.6 0.3h-3.5v-9.4h3.3q1 0 1.7 0.4 0.6 0.3 1 0.8 0.3 0.6 0.3 1.2 0 0.9-0.4 1.4-0.5 0.5-1.2 0.8 0.5 0.1 0.9 0.4zm-4.4-0.9h2.1q0.8 0 1.3-0.4 0.5-0.4 0.5-1.1 0-0.7-0.5-1.1-0.5-0.4-1.4-0.4h-2zm3.6 3.8q0.5-0.4 0.5-1.2 0-0.7-0.5-1.2-0.6-0.4-1.5-0.4h-2.1v3.3h2.2q0.9 0 1.4-0.5z"/>
								</g>
							</g>
							<g id="&lt;Group&gt;">
								<g id="&lt;Group&gt;">
									<path id="&lt;Compound Path&gt;" fill-rule="evenodd" class="s0" d="m175.4 153.6h-4.1l-0.7 2.1h-1.3l3.4-9.3h1.4l3.4 9.3h-1.3zm-0.4-1l-1.7-4.7-1.7 4.7z"/>
								</g>
							</g>
							<g id="&lt;Group&gt;">
								<g id="&lt;Group&gt;">
									<path id="&lt;Compound Path&gt;" class="s0" d="m182.6 154.6h4.6v1.1h-6v-1l4.5-7.3h-4.5v-1.1h6v1z"/>
								</g>
							</g>
							<g id="&lt;Group&gt;">
								<g id="&lt;Group&gt;">
									<path id="&lt;Compound Path&gt;" fill-rule="evenodd" class="s0" d="m197.1 153.6h-4.1l-0.8 2.1h-1.3l3.4-9.3h1.4l3.4 9.3h-1.3zm-0.3-1l-1.7-4.7-1.7 4.7z"/>
								</g>
							</g>
							<g id="&lt;Group&gt;">
								<g id="&lt;Group&gt;">
									<path id="&lt;Compound Path&gt;" fill-rule="evenodd" class="s0" d="m208.2 155.7l-2.3-3.8h-1.4v3.8h-1.2v-9.4h3q1 0 1.8 0.4 0.7 0.4 1 1 0.4 0.6 0.4 1.4 0 1-0.5 1.7-0.6 0.7-1.7 1l2.3 3.9zm-3.7-4.8h1.8q1 0 1.5-0.5 0.5-0.5 0.5-1.3 0-0.8-0.5-1.3-0.5-0.4-1.5-0.4h-1.8z"/>
								</g>
							</g>
							<g id="&lt;Group&gt;">
								<g id="&lt;Group&gt;">
									<path id="&lt;Compound Path&gt;" class="s0" d="m215.3 146.3v9.4h-1.2v-9.4z"/>
								</g>
							</g>
						</g>
					</g>
				</g>
				<g id="&lt;Group&gt;">
					<path id="&lt;Path&gt;" class="s20" d="m185 61.3c-0.2-0.3-0.6-0.5-0.9-0.5h-42.6c-0.3 0-0.7 0.2-0.9 0.5l-4.1 7.2c-0.2 0.3-0.2 0.7 0 1 0.2 0.3 0.5 0.5 0.9 0.5h50.8c0.4 0 0.8-0.2 0.9-0.5 0.2-0.3 0.2-0.7 0-1z"/>
					<path id="&lt;Path&gt;" class="s21" d="m137.4 18.3h50.9c0.4 0 0.7-0.2 0.9-0.5 0.2-0.4 0.2-0.8 0-1.1l-4.2-7.2c-0.2-0.3-0.5-0.5-0.9-0.5h-42.5c-0.4 0-0.7 0.2-0.9 0.5l-4.2 7.2c-0.1 0.3-0.1 0.7 0 1.1 0.2 0.3 0.6 0.5 0.9 0.5z"/>
					<path id="&lt;Path&gt;" class="s22" d="m194 48.4c-0.2-0.4-0.5-0.6-0.9-0.6h-17.2c-0.3 0-0.7 0.2-0.9 0.6l-4.1 7.1c-0.2 0.4-0.2 0.8 0 1.1 0.2 0.3 0.5 0.5 0.9 0.5h25.5c0.3 0 0.7-0.2 0.9-0.5 0.1-0.3 0.1-0.7 0-1.1z"/>
					<path id="&lt;Path&gt;" class="s23" d="m159.8 35.4l-4.1 7.2c-0.2 0.3-0.2 0.7 0 1 0.2 0.4 0.5 0.6 0.9 0.6h40.7c0.3 0 0.7-0.2 0.9-0.6 0.1-0.3 0.1-0.7 0-1l-4.2-7.2c-0.2-0.3-0.5-0.5-0.9-0.5h-32.4c-0.4 0-0.7 0.2-0.9 0.5z"/>
					<path id="&lt;Path&gt;" class="s24" d="m117.3 61.3c-0.2-0.3-0.5-0.5-0.9-0.5h-42.6c-0.3 0-0.7 0.2-0.9 0.5l-4.1 7.2c-0.2 0.3-0.2 0.7 0 1 0.2 0.3 0.5 0.5 0.9 0.5h50.8c0.4 0 0.8-0.2 0.9-0.5 0.2-0.3 0.2-0.7 0-1z"/>
					<path id="&lt;Path&gt;" class="s25" d="m69.7 18.3h50.8c0.4 0 0.8-0.2 0.9-0.5 0.2-0.4 0.2-0.8 0-1.1l-4.1-7.2c-0.2-0.3-0.5-0.5-0.9-0.5h-42.6c-0.3 0-0.7 0.2-0.9 0.5l-4.1 7.2c-0.2 0.3-0.2 0.7 0 1.1 0.2 0.3 0.5 0.5 0.9 0.5z"/>
					<path id="&lt;Path&gt;" class="s26" d="m62.2 31.2h25.5c0.3 0 0.7-0.2 0.9-0.5 0.1-0.3 0.1-0.7 0-1l-4.2-7.2c-0.2-0.3-0.5-0.5-0.9-0.5h-17.2c-0.3 0-0.7 0.2-0.9 0.5l-4.1 7.2c-0.2 0.3-0.2 0.7 0 1 0.2 0.3 0.5 0.5 0.9 0.5z"/>
					<path id="&lt;Path&gt;" class="s27" d="m88.6 56.6c0.1-0.3 0.1-0.7 0-1.1l-4.2-7.1c-0.2-0.4-0.5-0.6-0.9-0.6h-17.2c-0.3 0-0.7 0.2-0.9 0.6l-4.1 7.1c-0.2 0.4-0.2 0.8 0 1.1 0.2 0.3 0.5 0.5 0.9 0.5h25.5c0.3 0 0.7-0.2 0.9-0.5z"/>
					<path id="&lt;Path&gt;" class="s28" d="m81.1 43.6c0.2-0.3 0.2-0.7 0-1l-4.2-7.2c-0.1-0.3-0.5-0.5-0.9-0.5h-17.1c-0.4 0-0.7 0.2-0.9 0.5l-4.2 7.2c-0.1 0.3-0.1 0.7 0 1 0.2 0.4 0.6 0.6 0.9 0.6h25.5c0.4 0 0.7-0.2 0.9-0.6z"/>
					<path id="&lt;Path&gt;" class="s29" d="m129.9 31.2h25.5c0.4 0 0.7-0.2 0.9-0.5 0.2-0.3 0.2-0.7 0-1l-4.2-7.2c-0.2-0.3-0.5-0.5-0.9-0.5h-17.1c-0.4 0-0.7 0.2-0.9 0.5l-4.2 7.2c-0.1 0.3-0.1 0.7 0 1 0.2 0.3 0.6 0.5 0.9 0.5z"/>
					<path id="&lt;Path&gt;" class="s30" d="m156.3 56.6c0.2-0.3 0.2-0.7 0-1.1l-4.2-7.1c-0.2-0.4-0.5-0.6-0.9-0.6h-17.1c-0.4 0-0.7 0.2-0.9 0.6l-4.2 7.1c-0.1 0.4-0.1 0.8 0 1.1 0.2 0.3 0.6 0.5 0.9 0.5h25.5c0.4 0 0.7-0.2 0.9-0.5z"/>
					<path id="&lt;Path&gt;" class="s31" d="m148.8 43.6c0.2-0.3 0.2-0.7 0-1l-4.1-7.2c-0.2-0.3-0.5-0.5-0.9-0.5h-17.2c-0.3 0-0.7 0.2-0.9 0.5l-4.1 7.2c-0.2 0.3-0.2 0.7 0 1 0.2 0.4 0.5 0.6 0.9 0.6h25.4c0.4 0 0.8-0.2 0.9-0.6z"/>
					<path id="&lt;Path&gt;" class="s32" d="m110 34.9h-17.2c-0.3 0-0.7 0.2-0.9 0.5l-4.1 7.2c-0.2 0.3-0.2 0.7 0 1 0.2 0.4 0.5 0.6 0.9 0.6h25.4c0.4 0 0.8-0.2 0.9-0.6 0.2-0.3 0.2-0.7 0-1l-4.1-7.2c-0.2-0.3-0.6-0.5-0.9-0.5z"/>
				</g>
			</g>
			<g id="&lt;Group&gt;">
				<g id="&lt;Group&gt;">
					<g id="&lt;Group&gt;">
						<g id="&lt;Group&gt;">
							<path id="&lt;Compound Path&gt;" class="s33" d="m-312.8 519.7q-5.2 0-9.1-2.1-4-2.1-6.3-6.3-2.2-4.1-2.2-10.1 0-5.1 2.2-9.5 2.1-4.3 6.1-6.9 4-2.6 9.5-2.6 4.8 0 8.2 2 3.3 2 5.1 5.3 1.8 3.2 1.8 6.8 0 0.4-0.1 1.1 0 0.8 0 1.5-0.1 0.7-0.2 1.1h-24.2l0.2-3.4h15.3q0-3.1-0.6-5.5-0.6-2.4-2.1-3.9-1.4-1.4-4-1.4-2.4 0-4 1.3-1.6 1.2-2.6 3.2-1 2-1.3 4.5-0.4 2.4-0.4 4.8 0 4 1.1 7.4 1.1 3.3 3.7 5.3 2.7 1.9 7.2 1.9 2.7 0 4.7-0.6 2-0.6 3.6-1.5 1.6-0.9 2.6-1.5h1v3.2q-2.5 2.1-6.5 4-4 1.9-8.7 1.9z"/>
							<path id="&lt;Compound Path&gt;" fill-rule="evenodd" class="s33" d="m-285 519.6q-3 0-5.2-1.4-2.2-1.4-3.4-3.6-1.2-2.3-1.2-4.8 0-3.4 1.7-5.8 1.6-2.3 4.2-3.8 2.6-1.4 5.5-2.1 2.9-0.7 5.4-0.7 0.4 0 1.4 0.1 1.1 0.1 2.1 0.2 1 0.1 1.4 0.1l0.1-5q0-3.6-1.2-4.9-1.3-1.3-4-1.3-1.6 0-3.3 0.6-1.7 0.6-3.2 1.6-1.6 0.9-3 1.9-1.4 1-2.4 1.6h-1.4l-0.9-7q1.9-0.8 3.9-1.5 2.1-0.7 4.6-1.1 2.5-0.5 5.4-0.5 3.4 0 6.6 1 3.3 1.1 5.4 3.6 2.1 2.5 2.1 7l-0.2 18.3q0 1.1 0.8 1.9 0.8 0.7 2.2 0.7 0.5 0 1.4-0.3 1-0.2 1.7-0.4h0.7v2.6q-0.7 0.5-2.1 1.2-1.4 0.7-3 1.3-1.6 0.5-3 0.5-3.3 0-5.1-1.3-1.9-1.3-1.9-4.7h-0.2q-1.8 2.6-3.9 3.9-2.1 1.3-4.2 1.7-2.1 0.4-3.8 0.4zm4.8-5.2q1.8 0 3.8-0.8 2-0.7 3.3-2.6v-10.3q-3.8 0-6.7 0.7-2.8 0.7-4.4 2.4-1.6 1.7-1.6 4.5 0 2.3 0.9 3.7 0.8 1.3 2.1 1.8 1.3 0.6 2.6 0.6z"/>
							<path id="&lt;Compound Path&gt;" class="s33" d="m-257.1 517.4v-9.8h3.4l1.3 3.8q0.2 0.8 0.9 1.4 0.7 0.6 1.3 0.9 1.3 0.7 3.5 1.4 2.1 0.7 4.3 0.7 1.6 0 3.1-0.5 1.4-0.5 2.3-1.7 0.9-1.2 0.9-3.1 0-2.5-1.8-3.6-1.9-1.1-4.5-1.8-1.7-0.5-3.4-0.9-1.6-0.5-3.1-0.9-3.6-1.2-5.6-3.7-2-2.6-2-6.2 0-3.3 2-5.9 2.1-2.5 5.5-3.9 3.4-1.4 7.6-1.4 3.3 0 5.7 0.4 2.5 0.4 5.3 1.1l0.4 9.9h-3.4l-1.5-3.8q-0.2-0.7-0.8-1.2-0.5-0.6-1.2-0.9-1.2-0.6-2.8-1.1-1.7-0.5-3.4-0.5-2 0-3.8 1.1-1.7 1.2-1.7 3.7 0 2.5 1.6 3.7 1.6 1.2 3.9 1.9 1.6 0.5 3.2 1 1.6 0.4 2.7 0.8 4.1 1.2 6.5 3.4 2.5 2.2 2.5 6.1 0 4.1-2.3 6.8-2.3 2.7-5.9 4-3.6 1.2-7.7 1.2-4.2 0-7.3-0.8-3.1-0.8-5.7-1.6z"/>
							<path id="&lt;Compound Path&gt;" class="s33" d="m-200.4 483.4l-0.8 4h-11.7v22.7q0 1.5 1.1 2.5 1.2 0.9 2.8 1.4 1.6 0.6 2.7 0.6 1.1 0 2.5-0.3 1.5-0.3 2.2-0.6h0.9v2.6q-0.7 0.4-2.3 1.2-1.6 0.8-3.7 1.4-2.1 0.6-4.5 0.6-2.9 0-5.3-0.8-2.3-0.9-3.7-2.5-1.4-1.6-1.4-4v-24.8h-5.7v-2.9q1.9-0.4 3.3-0.8 1.4-0.5 2.2-1.6 0.8-1 0.9-3.2l0.3-4.7 7.7-1.3v10.5z"/>
							<path id="&lt;Compound Path&gt;" fill-rule="evenodd" class="s34" d="m-183.1 506.5q-1.8 0-3.3-0.2-1.5-0.2-2.6-0.5-0.8 0.2-1.5 1.1-0.7 0.9-0.7 2.1 0 1.6 0.9 2.4 1 0.8 2.2 0.9h11.6q4.8 0 7.6 1.5 2.9 1.5 4 3.8 1.1 2.3 1.1 4.5 0 4.1-2.6 7.2-2.6 3.1-7.2 4.8-4.5 1.7-10.1 1.7-4.8 0-8.6-1-3.8-1-5.9-3.1-2.2-2-2.2-4.9 0-3.5 2.3-5.3 2.2-1.9 6.2-2.8v-0.2q-1.4-0.3-2.9-1.2-1.5-0.8-2.5-2.3-1.1-1.4-1.1-3.3 0-2.1 1.1-3.4 1.1-1.4 2.8-2.2 1.7-0.9 3.4-1.3v-0.1q-1.8-0.9-3.3-2.3-1.6-1.4-2.5-3.3-1-2-1-4.7 0-3.3 1.9-6.1 1.9-2.8 5.4-4.4 3.5-1.7 8-1.7 2 0 4 0.3 1.9 0.3 3.8 0.7h12.8l-0.6 4.8-9.3-1.5v0.2q2.1 1.6 2.9 3.7 0.9 2.2 0.9 4.1 0 5.2-3.9 8.6-4 3.4-11.1 3.4zm1.1 25.6q2.5 0 5-0.8 2.4-0.8 4-2.4 1.6-1.7 1.6-4.4 0-2-1.5-3.6-1.5-1.7-4.9-1.7h-11.5q-0.8 0.6-1.6 2-0.9 1.3-0.9 3.7 0 2.1 1 3.5 1 1.4 2.5 2.2 1.6 0.8 3.3 1.2 1.7 0.3 3 0.3zm-0.9-28.6q2.1 0 3.4-1.2 1.3-1.3 1.9-3.3 0.6-2.1 0.6-4.8 0-4.1-1.5-6.4-1.6-2.4-4.5-2.4-1.9 0-3.2 1.1-1.3 1.1-2 3.1-0.7 1.9-0.7 4.6 0 4.2 1.6 6.7 1.5 2.6 4.4 2.6z"/>
							<path id="&lt;Compound Path&gt;" fill-rule="evenodd" class="s35" d="m-143.1 519.8q-5.5 0-9.5-2.3-4-2.2-6.2-6.4-2.2-4.2-2.2-10 0-5.3 2.2-9.6 2.1-4.3 6.2-6.8 4.2-2.5 9.9-2.5 6.1 0 10.1 2.6 4 2.7 5.9 6.9 1.9 4.3 1.9 9.3 0 5.2-2.2 9.5-2.2 4.3-6.3 6.8-4.1 2.5-9.8 2.5zm0.4-3.7q2.6 0 4.3-1.3 1.6-1.3 2.6-3.5 0.9-2.2 1.3-4.7 0.4-2.5 0.4-5 0-3.8-0.9-7.5-0.9-3.6-2.9-5.9-1.9-2.3-5.3-2.3-2.6 0-4.2 1.3-1.6 1.3-2.6 3.5-0.9 2.1-1.3 4.7-0.4 2.5-0.4 4.9 0 2.6 0.4 5.4 0.4 2.7 1.4 5.1 1 2.4 2.8 3.9 1.7 1.4 4.4 1.4z"/>
							<path id="&lt;Compound Path&gt;" class="s36" d="m-123.2 518.9v-2.3l4.3-1.2q0.7-0.3 1.1-0.7 0.4-0.5 0.4-1.2v-40.6q0-0.9-0.5-1.4-0.4-0.6-1.4-1l-4.1-1.4v-2l14.6-2v48.4q0 0.8 0.4 1.2 0.5 0.4 1.1 0.7l4 1.2v2.3z"/>
							<path id="&lt;Compound Path&gt;" fill-rule="evenodd" class="s37" d="m-87.5 519.6q-4.4 0-7.5-2.3-3.2-2.2-4.8-6.1-1.7-4-1.7-8.9 0-5.5 2-10.1 2-4.5 5.8-7.3 3.7-2.7 9-2.7 3.2 0 5.3 1.1 2.1 1.1 3.4 2.5v-1.7-11.2q0-0.9-0.5-1.4-0.4-0.6-1.5-1l-4.3-1.4v-2l14.9-2v46.5q0 0.8 0.4 1.3 0.5 0.6 1.5 0.9l3.6 1.3v1.9l-13.3 2.6h-0.5v-6.1h-0.1q-2.1 2.9-4.3 4.2-2.3 1.3-4.2 1.6-2 0.3-3.2 0.3zm4.5-5.5q1 0 2.3-0.3 1.4-0.2 2.6-0.9 1.3-0.7 2.1-1.9v-22.6q-0.8-0.6-2.1-1-1.2-0.4-2.6-0.6-1.3-0.2-2.2-0.2-3.2 0-5.3 1.8-2.2 1.8-3.2 4.8-1 3-1 6.6 0 4.2 0.9 7.4 1 3.3 3.1 5.1 2.1 1.8 5.4 1.8z"/>
						</g>
					</g>
					<g id="&lt;Group&gt;">
						<g id="&lt;Group&gt;">
							<path id="&lt;Compound Path&gt;" class="s33" d="m-286.1 552.1q-0.4 0.6-1 1-0.7 0.4-1.6 0.5v0.8q0.9 0 1.4 0.4 0.5 0.4 0.5 1.1 0 0.6-0.5 1.1-0.5 0.4-1.3 0.4h-1.7v-0.9h1.4q0.5 0 0.7-0.1 0.3-0.2 0.3-0.5 0-0.4-0.3-0.5-0.2-0.2-0.7-0.2h-0.7v-1.6q-1.3-0.1-2.2-0.9-0.8-0.7-0.8-1.9h1.4q0 0.7 0.6 1.2 0.5 0.5 1.5 0.5 0.9 0 1.4-0.5 0.6-0.4 0.6-1.2 0-0.5-0.3-0.9-0.4-0.4-0.8-0.6-0.5-0.1-1.3-0.4-1-0.2-1.6-0.5-0.6-0.2-1.1-0.8-0.4-0.6-0.4-1.5 0-0.8 0.4-1.5 0.5-0.6 1.2-1 0.8-0.3 1.8-0.3 1.4 0 2.3 0.7 0.9 0.7 1 1.9h-1.4q-0.1-0.6-0.6-1-0.6-0.5-1.5-0.5-0.8 0-1.3 0.5-0.5 0.4-0.5 1.2 0 0.5 0.3 0.8 0.3 0.4 0.7 0.6 0.5 0.2 1.3 0.4 1 0.3 1.6 0.5 0.6 0.3 1.1 0.9 0.4 0.5 0.4 1.5 0 0.7-0.3 1.3z"/>
							<path id="&lt;Compound Path&gt;" fill-rule="evenodd" class="s33" d="m-273.8 544q1.1 0.6 1.7 1.8 0.6 1.2 0.6 2.7 0 1.5-0.6 2.7-0.6 1.1-1.7 1.8-1.1 0.6-2.6 0.6-1.4 0-2.4-0.5-1.1-0.6-1.7-1.7-0.6-1-0.6-2.5 0-0.4 0.1-0.9h8q0-1.1-0.5-1.8-0.4-0.8-1.2-1.3-0.7-0.4-1.6-0.4-1.2 0-2 0.6-0.8 0.5-1.2 1.5h-1.5q0.5-1.5 1.7-2.4 1.2-0.9 3-0.9 1.4 0 2.5 0.7zm-0.9 8.1q0.8-0.4 1.2-1.2 0.5-0.7 0.5-1.7h-6.7q0 1 0.4 1.7 0.4 0.7 1.2 1.1 0.8 0.4 1.7 0.4 1 0 1.7-0.3z"/>
							<path id="&lt;Compound Path&gt;" fill-rule="evenodd" class="s33" d="m-261.4 553.5l-2.4-4.1h-1.6v4.1h-1.3v-10.1h3.3q1.1 0 1.9 0.4 0.8 0.4 1.2 1.1 0.4 0.6 0.4 1.5 0 1-0.6 1.8-0.6 0.8-1.8 1.1l2.5 4.2zm-4-5.2h2q1 0 1.6-0.5 0.5-0.5 0.5-1.4 0-0.9-0.5-1.4-0.6-0.5-1.6-0.5h-2z"/>
							<path id="&lt;Compound Path&gt;" fill-rule="evenodd" class="s33" d="m-246.9 555.4l-2-2q-0.7 0.2-1.5 0.2-1.4 0-2.6-0.6-1.1-0.7-1.8-1.9-0.7-1.2-0.7-2.6 0-1.5 0.7-2.7 0.7-1.2 1.8-1.8 1.2-0.7 2.6-0.7 1.4 0 2.6 0.7 1.1 0.6 1.8 1.8 0.7 1.2 0.7 2.7 0 1.4-0.7 2.6-0.6 1.1-1.7 1.8l2.5 2.5zm-6.7-4.8q0.5 0.9 1.3 1.4 0.9 0.5 1.9 0.5 1.1 0 1.9-0.5 0.9-0.5 1.3-1.4 0.5-0.9 0.5-2.1 0-1.2-0.5-2.2-0.4-0.9-1.3-1.4-0.8-0.4-1.9-0.4-1.1 0-1.9 0.4-0.8 0.5-1.3 1.4-0.5 1-0.5 2.2 0 1.2 0.5 2.1z"/>
							<path id="&lt;Compound Path&gt;" class="s33" d="m-239.3 543.4v10.1h-1.4v-10.1z"/>
							<path id="&lt;Compound Path&gt;" class="s33" d="m-226.3 553.5h-1.3l-5.3-8v8h-1.3v-10.1h1.3l5.3 8v-8h1.3z"/>
							<path id="&lt;Compound Path&gt;" fill-rule="evenodd" class="s33" d="m-206.3 555.4l-2-2q-0.7 0.2-1.5 0.2-1.4 0-2.6-0.6-1.1-0.7-1.8-1.9-0.7-1.2-0.7-2.6 0-1.5 0.7-2.7 0.7-1.2 1.8-1.8 1.2-0.7 2.6-0.7 1.4 0 2.6 0.7 1.1 0.6 1.8 1.8 0.7 1.2 0.7 2.7 0 1.4-0.7 2.6-0.6 1.1-1.7 1.8l2.5 2.5zm-6.7-4.8q0.5 0.9 1.3 1.4 0.9 0.5 1.9 0.5 1.1 0 1.9-0.5 0.9-0.5 1.4-1.4 0.4-0.9 0.4-2.1 0-1.2-0.4-2.2-0.5-0.9-1.4-1.4-0.8-0.4-1.9-0.4-1.1 0-1.9 0.4-0.8 0.5-1.3 1.4-0.5 1-0.5 2.2 0 1.2 0.5 2.1z"/>
							<path id="&lt;Compound Path&gt;" class="s33" d="m-198.7 543.4v10.1h-1.4v-10.1z"/>
							<path id="&lt;Compound Path&gt;" class="s33" d="m-192.5 552.4h4.9v1.1h-6.4v-1l4.8-7.9h-4.8v-1.2h6.4v1.1z"/>
							<path id="&lt;Compound Path&gt;" class="s33" d="m-181.6 543.4v10.1h-1.3v-10.1z"/>
							<path id="&lt;Compound Path&gt;" class="s33" d="m-175.1 552.5h3.5v1h-4.8v-10.1h1.3z"/>
							<path id="&lt;Compound Path&gt;" fill-rule="evenodd" class="s33" d="m-154.4 548.8q0.4 0.3 0.7 0.9 0.3 0.5 0.3 1.1 0 0.8-0.4 1.4-0.4 0.6-1.2 1-0.7 0.3-1.7 0.3h-3.8v-10.1h3.6q1.1 0 1.8 0.4 0.7 0.3 1.1 0.9 0.3 0.6 0.3 1.3 0 0.9-0.5 1.5-0.4 0.6-1.2 0.8 0.5 0.1 1 0.5zm-4.8-1h2.2q1 0 1.5-0.4 0.5-0.5 0.5-1.2 0-0.8-0.5-1.3-0.5-0.4-1.5-0.4h-2.2zm3.9 4.2q0.5-0.5 0.5-1.3 0-0.8-0.5-1.3-0.6-0.5-1.6-0.5h-2.3v3.6h2.4q0.9 0 1.5-0.5z"/>
							<path id="&lt;Compound Path&gt;" fill-rule="evenodd" class="s33" d="m-142.8 551.3h-4.4l-0.8 2.2h-1.4l3.7-10h1.5l3.6 10h-1.3zm-0.4-1l-1.8-5.1-1.9 5.1z"/>
							<path id="&lt;Compound Path&gt;" class="s33" d="m-134.9 552.4h4.9v1.1h-6.5v-1l4.9-7.9h-4.9v-1.2h6.4v1.1z"/>
							<path id="&lt;Compound Path&gt;" fill-rule="evenodd" class="s33" d="m-119.4 551.3h-4.4l-0.8 2.2h-1.4l3.7-10h1.5l3.6 10h-1.4zm-0.3-1l-1.9-5.1-1.8 5.1z"/>
							<path id="&lt;Compound Path&gt;" fill-rule="evenodd" class="s33" d="m-107.4 553.5l-2.4-4.1h-1.6v4.1h-1.3v-10.1h3.3q1.1 0 1.9 0.4 0.8 0.4 1.2 1.1 0.4 0.6 0.4 1.5 0 1-0.6 1.8-0.6 0.8-1.8 1.1l2.5 4.2zm-4-5.2h2q1 0 1.6-0.5 0.5-0.5 0.5-1.4 0-0.9-0.5-1.4-0.6-0.5-1.6-0.5h-2z"/>
							<path id="&lt;Compound Path&gt;" class="s33" d="m-99.7 543.4v10.1h-1.3v-10.1z"/>
						</g>
					</g>
				</g>
				<g id="&lt;Group&gt;">
					<path id="&lt;Path&gt;" class="s38" d="m-132.4 451.5c-0.2-0.3-0.6-0.5-1-0.5h-46c-0.4 0-0.7 0.2-0.9 0.5l-4.5 7.8c-0.2 0.3-0.2 0.8 0 1.1 0.2 0.4 0.6 0.6 1 0.6h54.9c0.4 0 0.8-0.2 1-0.6 0.2-0.3 0.2-0.8 0-1.1z"/>
					<path id="&lt;Path&gt;" class="s39" d="m-183.8 405h55c0.4 0 0.7-0.2 0.9-0.5 0.2-0.4 0.2-0.8 0-1.1l-4.5-7.8c-0.2-0.4-0.5-0.6-0.9-0.6h-46c-0.4 0-0.8 0.2-1 0.6l-4.5 7.8c-0.2 0.3-0.2 0.7 0 1.1 0.2 0.3 0.6 0.5 1 0.5z"/>
					<path id="&lt;Path&gt;" class="s40" d="m-122.7 437.5c-0.2-0.3-0.6-0.5-1-0.5h-18.5c-0.4 0-0.8 0.2-0.9 0.5l-4.5 7.8c-0.2 0.4-0.2 0.8 0 1.1 0.2 0.4 0.5 0.6 0.9 0.6h27.5c0.5 0 0.8-0.2 1-0.6 0.2-0.3 0.2-0.7 0-1.1z"/>
					<path id="&lt;Path&gt;" class="s41" d="m-159.6 423.6l-4.5 7.7c-0.2 0.4-0.2 0.8 0 1.1 0.2 0.4 0.6 0.6 1 0.6h43.9c0.5 0 0.8-0.2 1-0.6 0.2-0.3 0.2-0.7 0-1.1l-4.5-7.7c-0.2-0.4-0.6-0.6-1-0.6h-34.9c-0.4 0-0.8 0.2-1 0.6z"/>
					<path id="&lt;Path&gt;" class="s42" d="m-205.6 451.5c-0.2-0.3-0.5-0.5-0.9-0.5h-46c-0.4 0-0.8 0.2-1 0.5l-4.5 7.8c-0.2 0.3-0.2 0.8 0 1.1 0.2 0.4 0.6 0.6 1 0.6h55c0.4 0 0.7-0.2 0.9-0.6 0.2-0.3 0.2-0.8 0-1.1z"/>
					<path id="&lt;Path&gt;" class="s43" d="m-257 405h55c0.4 0 0.7-0.2 0.9-0.5 0.2-0.4 0.2-0.8 0-1.1l-4.5-7.8c-0.2-0.4-0.5-0.6-0.9-0.6h-46c-0.4 0-0.8 0.2-1 0.6l-4.5 7.8c-0.2 0.3-0.2 0.7 0 1.1 0.2 0.3 0.6 0.5 1 0.5z"/>
					<path id="&lt;Path&gt;" class="s44" d="m-265.1 419h27.5c0.4 0 0.8-0.2 1-0.5 0.2-0.4 0.2-0.8 0-1.2l-4.5-7.7c-0.2-0.4-0.6-0.6-1-0.6h-18.5c-0.4 0-0.8 0.2-1 0.6l-4.5 7.7c-0.2 0.4-0.2 0.8 0 1.2 0.2 0.3 0.6 0.5 1 0.5z"/>
					<path id="&lt;Path&gt;" class="s45" d="m-236.6 446.4c0.2-0.3 0.2-0.7 0-1.1l-4.5-7.8c-0.2-0.3-0.6-0.5-1-0.5h-18.5c-0.4 0-0.8 0.2-1 0.5l-4.5 7.8c-0.2 0.4-0.2 0.8 0 1.1 0.2 0.4 0.6 0.6 1 0.6h27.5c0.4 0 0.8-0.2 1-0.6z"/>
					<path id="&lt;Path&gt;" class="s46" d="m-244.7 432.4c0.2-0.3 0.2-0.7 0-1.1l-4.5-7.7c-0.2-0.4-0.5-0.6-0.9-0.6h-18.6c-0.4 0-0.7 0.2-0.9 0.6l-4.5 7.7c-0.2 0.4-0.2 0.8 0 1.1 0.2 0.4 0.5 0.6 1 0.6h27.5c0.4 0 0.7-0.2 0.9-0.6z"/>
					<path id="&lt;Path&gt;" class="s47" d="m-191.9 419h27.5c0.4 0 0.8-0.2 1-0.5 0.2-0.4 0.2-0.8 0-1.2l-4.5-7.7c-0.2-0.4-0.6-0.6-1-0.6h-18.5c-0.4 0-0.8 0.2-1 0.6l-4.5 7.7c-0.2 0.4-0.2 0.8 0 1.2 0.2 0.3 0.6 0.5 1 0.5z"/>
					<path id="&lt;Path&gt;" class="s48" d="m-163.4 446.4c0.2-0.3 0.2-0.7 0-1.1l-4.5-7.8c-0.2-0.3-0.6-0.5-1-0.5h-18.5c-0.4 0-0.8 0.2-1 0.5l-4.5 7.8c-0.2 0.4-0.2 0.8 0 1.1 0.2 0.4 0.6 0.6 1 0.6h27.5c0.4 0 0.8-0.2 1-0.6z"/>
					<path id="&lt;Path&gt;" class="s49" d="m-171.5 432.4c0.2-0.3 0.2-0.7 0-1.1l-4.5-7.7c-0.2-0.4-0.5-0.6-0.9-0.6h-18.6c-0.4 0-0.7 0.2-0.9 0.6l-4.5 7.7c-0.2 0.4-0.2 0.8 0 1.1 0.2 0.4 0.6 0.6 1 0.6h27.5c0.4 0 0.7-0.2 0.9-0.6z"/>
					<path id="&lt;Path&gt;" class="s50" d="m-213.5 423h-18.5c-0.4 0-0.8 0.2-1 0.6l-4.4 7.7c-0.2 0.4-0.2 0.8 0 1.1 0.2 0.4 0.5 0.6 0.9 0.6h27.5c0.4 0 0.8-0.2 1-0.6 0.2-0.3 0.2-0.7 0-1.1l-4.5-7.7c-0.2-0.4-0.6-0.6-1-0.6z"/>
				</g>
			</g>
			<path id="&lt;Path&gt;" class="s51" d="m334.7 420.1h290.1"/>
			<path id="&lt;Path&gt;" class="s51" d="m334.7 532.3h290.1"/>
			<path id="&lt;Path&gt;" class="s52" d="m352.7 546.4v-136.5"/>
			<path id="&lt;Path&gt;" class="s51" d="m470.4 546.4v-136.5"/>
			<path id="&lt;Path&gt;" class="s51" d="m611.5 546.4v-136.5"/>
			<path id="&lt;Path&gt;" class="s51" d="m424 346.5l-92.5 160.1"/>
			<path id="&lt;Path&gt;" class="s51" d="m548.6 346.5l-92.5 160.1"/>
			<path id="&lt;Path&gt;" class="s51" d="m458.6 546.4v-136.5"/>
			<path id="&lt;Path&gt;" class="s51" d="m408 546.4v-136.5"/>
			<path id="&lt;Path&gt;" class="s51" d="m396.2 546.4v-136.5"/>
			<path id="&lt;Path&gt;" class="s51" d="m532.8 546.4v-136.5"/>
			<path id="&lt;Path&gt;" class="s51" d="m521 546.4v-136.5"/>
			<g id="&lt;Group&gt;">
				<path id="&lt;Path&gt;" class="s0" d="m576.9 393.3h-203.9v-59.5h203.9z"/>
			</g>
		</g>
	</g>
</svg>